<svg xmlns="http://www.w3.org/2000/svg" viewBox="0 0 64 64" width="64" height="64">
  <!-- Background circle -->
  <circle cx="32" cy="32" r="32" fill="#0f172a"/>
  <!-- Blue accent arc -->
  <circle cx="32" cy="32" r="28" fill="none" stroke="#3b82f6" stroke-width="3" stroke-dasharray="60 120" stroke-dashoffset="-30"/>
  <!-- Wrench icon -->
  <g transform="translate(16,14) scale(0.48)">
    <path fill="#fbbf24" d="M58.6 46.4L36 23.8c1.3-3.4 1-7.4-1.1-10.6C32.4 9.4 27.5 7.3 22.6 8L31 16.4l-5.7 5.7-8.4-8.4C16.2 18.6 18.3 23.5 22.1 26c3.2 2.1 7.1 2.4 10.5 1.1l22.6 22.6c1.1 1.1 2.9 1.1 4 0l-.6-.6c1.1-1.1 1.1-2.9 0-4z"/>
    <circle cx="55" cy="49" r="3.5" fill="#3b82f6"/>
  </g>
  <!-- HB text -->
  <text x="32" y="54" font-family="Arial Black, sans-serif" font-size="11" font-weight="900" fill="#60a5fa" text-anchor="middle" letter-spacing="1">HB</text>
</svg>
